<?xml version="1.0" encoding="UTF-8"?><svg id="Layer_1" xmlns="http://www.w3.org/2000/svg" viewBox="0 0 512 512"><defs><style>.cls-1{fill:#fff;}.cls-2{fill:#f58220;}.cls-3{fill:#00836c;}</style></defs><path class="cls-3" d="M28.5,303.28H483.5v-94.56H28.5v94.56Z"/><g><path class="cls-1" d="M143.01,255.99c0,26.32-21.32,47.65-47.64,47.65s-47.64-21.33-47.64-47.65,21.33-47.64,47.64-47.64,47.64,21.34,47.64,47.64"/><path class="cls-1" d="M159.5,272.45c-.04-2.08,.05-4.16,.14-6.23-.02-7.88,.03-15.76-.02-23.63-.24-2.05-.02-4.14-.21-6.18-.08-1.5-.06-3.03-.13-4.54-.16-.53-.09-1.12-.2-1.69-.27-.8,.24-.88,.92-.69,2.28-.01,4.52,.12,6.81,.08,1.5-.13,3.05-.02,4.55-.14,.05,1.07-.15,2.07-.16,3.13-.14,1.61-.22,3.31-.2,4.99-.08,1.34-.08,2.72-.09,4.08-.03,3.94-.12,7.87-.1,11.81-.05,3.97,.03,7.95,.04,11.92,.11,2.4,.03,4.82,.11,7.23,.03,1.96,.09,3.92,.2,5.87,.08,1.14,.23,2.25,.21,3.42-.88-.06-1.8-.05-2.64-.15-2.07-.03-4.16-.11-6.24,0-.98-.04-1.86,.13-2.84,.09-.8,.35-.56-.37-.56-.91,.13-.6,.11-1.24,.2-1.85,.1-1.71,.03-3.45,.19-5.15,0-.48,0-.97,.03-1.45h0Z"/><path class="cls-1" d="M191.98,276.67c2.45,.26,4.91,.4,7.43,.34,3,.03,5.99-.61,8.6-2.08,1.96-1.11,3.69-2.76,4.9-4.69,.76-1.04,1.3-2.2,1.8-3.39,.91-2.43,1.52-5.05,1.72-7.68,.28-2.57,.29-5.21,.13-7.8-.15-2.42-.65-4.82-1.52-7.08-.72-1.67-1.62-3.27-2.9-4.59-1.08-1.25-2.44-2.26-3.93-3.04-.97-.41-1.99-.94-3.07-1.16-3.46-.99-7.12-.84-10.68-.66-.83,.03-1.65,.11-2.47,.15-.16,10.68-.1,21.38-.11,32.08,.11,3.2,0,6.4,.11,9.6h0Zm-11.42-3.69c.11-5.01,.14-10.03,.12-15.05,.16-3.03-.08-6.07,0-9.11,.04-4.67-.15-9.32-.19-13.97-.19-1.28-.04-2.62-.2-3.9,.03-.41-.6-1.81,.27-1.45,1.53,.24,3.14,.45,4.75,.46,1.79,.15,3.59,.19,5.43,.17,1.5-.21,3.13-.16,4.67-.31,2.33-.09,4.58-.32,6.9-.34,2.54-.16,5.16-.02,7.67,.42,1.82,.26,3.62,.83,5.34,1.42,1.8,.71,3.49,1.64,5.05,2.82,2.02,1.55,3.8,3.46,5.09,5.62,1.3,2.17,2.21,4.59,2.72,7.08,.45,1.63,.61,3.3,.73,4.98,.18,1.94,.15,3.92,.02,5.85-.17,1.51-.23,3.06-.59,4.55-.26,1.32-.58,2.64-1.05,3.89-.81,2.6-2.17,4.99-3.86,7.13-1.07,1.19-2.14,2.41-3.47,3.35-2.12,1.79-4.65,3-7.25,3.94-1.65,.48-3.3,1-5.02,1.21-3.8,.7-7.7,.62-11.52,.39-1.73-.03-3.4-.24-5.15-.24-2.37-.23-4.86-.41-7.21-.1-1.26,.12-2.51,.26-3.74,.51,.07-1.01,.29-1.99,.28-3.02,.07-2.11,.14-4.19,.19-6.32h0Z"/><path class="cls-1" d="M247.01,276.58c1.65,.11,3.28,.39,4.99,.18,1.13-.23,2.3-.46,3.3-1.03,.49-.25,.92-.58,1.32-.92,.49-.34,.98-.92,1.37-1.47,.43-.46,.66-1.16,1.01-1.71,.36-.9,.63-1.91,.8-2.9,.01-1.01,.18-1.96,.16-2.98-.25-.66,0-1.57-.33-2.23-.23-1-.55-2-1.19-2.83-.3-.49-.61-.94-1.07-1.27-.35-.52-1.02-.81-1.49-1.22-.58-.16-1.03-.61-1.65-.66-.78-.25-1.6-.56-2.45-.49-1.15-.36-2.48-.13-3.71-.19-1.08-.3-1.21,.35-1.07,1.27v18.45h0Zm0-24.56c1.76,0,3.57,.09,5.21-.42,.83-.27,1.78-.55,2.54-1.12,.83-.48,1.46-1.12,2.07-1.83,.59-.79,1.09-1.75,1.37-2.74,.23-.6,.33-1.27,.39-1.92,.12-1.09,.25-2.2,0-3.25-.05-.77-.22-1.49-.6-2.14-.4-.97-1.07-1.68-1.86-2.35-.67-.59-1.48-.86-2.3-1.26-2.04-.58-4.29-.76-6.41-.42-.82-.03-.25,1.18-.42,1.73v15.71h0Zm-11.14,20.43c.04-3.31,.05-6.62,.1-9.92,.08-4.54,.01-9.1,.04-13.64-.14-2.15-.03-4.35-.1-6.51-.02-2.67-.05-5.32-.17-7.97-.09-1.17-.08-2.3-.23-3.41,.08-.49-.28-1.32,.06-1.57,2.26,.06,4.53,.08,6.79,.14,2.6-.16,5.26,0,7.88-.1,2.62,0,5.29-.19,7.87,.23,1.01,.18,2.05,.28,3,.66,1.19,.25,2.25,.78,3.34,1.3,.6,.44,1.37,.77,1.95,1.3,.92,.69,1.8,1.6,2.46,2.64,.61,.93,1.06,1.97,1.28,3.08,.22,1.26,.34,2.59,.08,3.86-.11,1.22-.44,2.44-1.03,3.49-.51,1.28-1.42,2.37-2.38,3.39-.88,.86-1.92,1.54-2.9,2.18-.96,.56-2.06,.99-3.14,1.37-.57,.14-1.17,.28-1.72,.46,.65,.09,1.28,.32,1.92,.49,.83,.19,1.55,.65,2.38,.9,1.2,.66,2.38,1.28,3.39,2.16,1.22,.95,2.21,2.16,3.02,3.49,.77,1.5,1.37,3.16,1.51,4.88,.29,2.33,.02,4.79-.79,6.95-.45,1.3-1.13,2.5-1.99,3.57-.65,.78-1.34,1.58-2.17,2.15-1,.91-2.21,1.55-3.41,2.17-1.47,.61-2.96,1.06-4.53,1.35-1.94,.24-3.86,.39-5.83,.32-2.65-.09-5.33-.03-7.97-.15-1.79,0-3.52-.06-5.29,0-1.16,.16-2.42,.07-3.6,.15-.62,0-.11-1.05-.22-1.52,.1-1.09,.18-2.18,.2-3.33,.14-1.52,.1-3.04,.17-4.56h0Z"/><path class="cls-1" d="M282.75,272.45c.17-6.86,.11-13.74,.12-20.61,.01-5.15,0-10.3-.17-15.43-.13-.96-.02-2.02-.13-2.99,.03-.9-.14-1.71-.14-2.58-.09-.44-.11-1.01-.09-1.42,1.37,.07,2.76,.09,4.16,.07,1.21,.15,2.56,.02,3.82,.06,1.28-.15,2.62,0,3.89-.13,.77-.18,.19,.78,.36,1.23-.17,1.08-.14,2.18-.19,3.32-.15,1.24,0,2.55-.12,3.81-.18,1.16,0,2.43-.1,3.63-.03,2.78-.1,5.56-.12,8.34,.01,6.4-.05,12.81,.12,19.2,.04,1.49-.02,2.99,.07,4.47,.17,1.44,0,2.98,.18,4.42-.06,1.27,.19,2.43,.18,3.67,.16,.66-.93,.11-1.35,.25-.91-.05-1.82-.11-2.76-.08-1.29-.12-2.62-.02-3.93-.05-.75,.14-1.67-.04-2.39,.13-.63-.04-1.35,.12-1.86,.02,.06-.91,.11-1.79,.22-2.65,.06-1.41,.15-2.79,.12-4.22,.12-.78,.1-1.67,.11-2.49h0Z"/><path class="cls-1" d="M327.84,278.16c1.21,.02,2.42-.1,3.59-.25,.54-.25,1.22-.15,1.76-.47,.54-.16,1-.46,1.46-.81,.75-.42,1.24-1.15,1.67-1.83,.22-.47,.4-.92,.55-1.4,.43-1.3,.33-2.75,.34-4.14-.07-.56-.14-1.14-.33-1.63-.07-.6-.44-1.08-.63-1.64-.41-.53-.76-1.19-1.37-1.56-.34-.39-.98-.65-1.46-.94-.83-.36-1.67-.55-2.54-.74-.71-.18-1.5-.15-2.26-.25-.52-.03-1.32-.26-1.05,.55,0,4.16-.03,8.32,.1,12.46,.04,.67,0,1.41,.1,1.98,.02,.22-.06,.51,.07,.65h0Zm9.04-26.56c.06-.95-.05-1.95-.37-2.79-.19-.57-.51-1.11-.87-1.57-.34-.37-.74-.71-1.14-.95-.46-.24-.83-.5-1.35-.62-.55-.2-1.17-.31-1.77-.44-1.1-.22-2.27-.2-3.42-.19-.19,.66-.12,1.44-.14,2.18-.17,.51-.11,1.16-.17,1.75-.11,3.36-.11,6.75-.1,10.13,1.09,.03,2.16-.07,3.22-.14,.67-.18,1.41-.13,2.04-.41,.62-.15,1.09-.47,1.57-.93,.29-.28,.56-.58,.84-.97,.62-.81,.85-1.79,1.2-2.72,.12-.79,.44-1.55,.44-2.35h0Zm-3.32,8.91c1.5,.1,3.04,.12,4.52,.37,.74,.05,1.37,.32,2.09,.46,.47,.16,.95,.3,1.39,.51,.56,.21,1.06,.53,1.61,.8,.37,.41,.88,.7,1.24,1.1,.4,.42,.69,.89,1.02,1.38,.16,.37,.37,.8,.5,1.2,.18,.61,.35,1.26,.45,1.9,.2,1.39,.17,2.85,.04,4.26-.18,.82-.31,1.66-.65,2.42-.28,.58-.45,1.25-.93,1.69-.46,.91-1.3,1.56-2.02,2.24-.73,.5-1.5,.96-2.28,1.31-.55,.18-1.03,.53-1.61,.57-.49,.26-1.07,.29-1.6,.47-.83,.08-1.64,.37-2.5,.36-3.22,.14-6.45,.02-9.67,.06-2.23-.01-4.5,.02-6.7-.02,.07-.75,.16-1.45,.17-2.23,.16-1.05,.03-2.2,.2-3.25,.09-3.54,.04-7.1,.05-10.65-.11-1.36,0-2.77-.15-4.13,.02-2.48-.07-4.95-.13-7.42,.03-1.73-.07-3.44-.1-5.15,0-2.43-.05-4.85-.04-7.27,2.01,.03,4.01,.15,6.01,.15,1.48,.01,2.95,.09,4.43,.11,2.53,.07,5.11-.1,7.6,.33,.73,.19,1.54,.23,2.23,.56,.92,.22,1.84,.63,2.64,1.12,.44,.14,.84,.54,1.25,.79,.62,.43,1,1.03,1.56,1.53,.17,.47,.54,.85,.69,1.34,.26,.42,.36,.92,.5,1.35,.21,.87,.25,1.86,.22,2.81-.13,.52-.07,1.05-.29,1.53-.1,.57-.38,1.12-.67,1.65-.27,.63-.7,1.12-1.13,1.63-.22,.35-.62,.58-.88,.9-.5,.26-.97,.73-1.5,.94-.41,.27-.9,.57-1.42,.68-.41,.27-.89,.4-1.38,.53-.65,.18-1.33,.44-2.03,.5-.89,.24-1.81,.31-2.73,.39v.18h0Z"/><path class="cls-1" d="M370.5,266.11c-.2-.73-.38-1.52-.81-2.18-.06-.5-.38-.85-.46-1.35-.16-.46-.29-.89-.48-1.33-.26-.83-.56-1.58-.79-2.38-.3-.68-.48-1.39-.87-2-.04-.53-.49-.84-.48-1.39-.35-.65-.59-1.36-.85-2.03-.25-.26-.28-1.23-.55-.48-.14,.41-.36,.69-.55,1.08-.37,.85-.74,1.7-1.08,2.6-.27,.4-.28,.95-.54,1.31-.09,.56-.4,.98-.5,1.56-.33,.59-.55,1.29-.78,1.88-.3,.76-.62,1.54-.82,2.34-.23,.41-.33,.9-.48,1.35-.02,.3-.57,1.09,.19,.91,1.03,.06,2.1,.15,3.21,.1h6.66Zm15.5,15.31c-1.75-.04-3.44,.1-5.18,.08-1.61,.06-3.24,.11-4.88,.12-.2-.61-.34-1.19-.52-1.77-.15-.52-.27-.9-.41-1.39-.49-1.12-.86-2.35-1.18-3.53-.22-.87-.56-1.68-.78-2.55-.17-.55-.35-1.05-.54-1.59-.14-.31-.26-.77-.51-.9h-13.59c-.26,.58-.48,1.27-.64,1.89-.55,1.35-1.07,2.75-1.49,4.14-.51,1.29-.82,2.69-1.38,3.95-.17,.58-.37,1.16-.6,1.74-1.23-.05-2.44-.14-3.7-.12-.32-.23-1.4,.13-1.38-.2,.09-.32,.3-.74,.45-1.11,.45-1.02,.88-2.17,1.32-3.21,.41-1.14,.95-2.28,1.37-3.47,.57-1.08,.89-2.26,1.4-3.38,.5-1.29,1.07-2.53,1.6-3.79,.27-.99,.77-1.95,1.11-2.9,.41-.77,.55-1.64,1.02-2.38,.45-1.13,.82-2.38,1.35-3.52,.46-1.13,.87-2.27,1.41-3.34,.32-.96,.66-1.9,1.04-2.83,.63-1.69,1.43-3.31,1.99-5.02,.27-.9,.72-1.76,.95-2.7,.43-.86,.77-1.78,1.15-2.65,.2-.26,.66,.12,1.02,.07,1.03,.09,2.13,0,3.15-.14,1.21,.58,1.22,3.19,2.02,4.47,.71,1.7,1.48,3.38,2.04,5.14,.47,1.12,.79,2.3,1.41,3.34,.61,1.73,1.28,3.41,1.94,5.12,.2,.63,.67,1.13,.76,1.79,.36,.91,.66,1.84,1.03,2.75,.4,1.04,.74,2.09,1.25,2.98,.46,1.14,.9,2.34,1.35,3.53,.29,.74,.55,1.56,.94,2.28,.68,1.07,.84,2.34,1.43,3.47,.24,.82,.56,1.6,.86,2.3,.18,.43,.3,.82,.57,1.11,.25,.6,.47,1.28,.7,1.87,0,.11,.2,.18,.13,.33h0Z"/><path class="cls-1" d="M425.07,241.49c-.1,1-.2,1.99-.26,2.98-.06,1.31-.18,2.61-.24,3.92-.14,2.49-.19,4.97-.17,7.48-.19,2.04-.04,4.15-.09,6.21,.21,2.42,0,4.89,.18,7.32,.02,2.2,.2,4.38,.26,6.57,0,1.41,.08,2.81,.17,4.2-.05,.45,.09,1.15,0,1.44-.99-.05-1.81-.25-2.85-.19-.84-.08-1.48,.14-2.24,.19-.4-.26-.59-.79-1.01-1.08-.37-.4-.64-.84-1.04-1.17-.23-.46-.7-.68-.93-1.12-.96-1.06-1.95-2.15-2.89-3.27-.54-.59-1.08-1.14-1.57-1.75-.58-.49-.9-1.18-1.49-1.67-.9-.93-1.73-1.89-2.57-2.86-.44-.31-.68-.84-1.11-1.15-.4-.5-.92-.93-1.26-1.5-1.04-.87-1.82-1.92-2.76-2.94-.77-.67-1.42-1.46-2.04-2.23-.44-.54-1.06-.9-1.42-1.49-.62-.5-1.02-1.21-1.61-1.76-.98-.81-1.77-1.86-2.6-2.81-.51-.29-.81-.8-1.22-1.19,0,6.28-.03,12.57,.06,18.85,.06,2.68,.18,5.36,.16,8.06,.09,.41,.31,1.37-.36,1.06-.86-.18-1.72-.2-2.71-.17-.66,.09-1.27,.14-1.97,.18v-40.12c1.06-.07,1.86,.13,2.81,.17,.66,.17,1.53,.17,2.23,.05,.53-.06,1-.1,1.53-.23,.69,.93,1.52,1.72,2.3,2.55,1.39,1.72,2.94,3.29,4.38,4.97,1.21,1.12,2.12,2.51,3.32,3.64,1.02,1.21,2.17,2.3,3.18,3.51,1.08,1.31,2.33,2.47,3.39,3.79,1.27,1.19,2.27,2.63,3.53,3.84,1.24,1.46,2.55,2.84,3.81,4.28,.59,1.02,.31-.46,.36-.93-.06-3.28-.01-6.56-.13-9.83-.11-4.04,.03-8.09-.14-12.12-.07-1.18-.01-2.38-.03-3.57,.82,.18,1.74,.28,2.78,.24,.85-.04,1.54-.1,2.29-.37h0Z"/><path class="cls-1" d="M466.47,281.61h-11.18c-.73-1.05-1.4-2.12-2.08-3.2-.72-1.08-1.42-2.18-2.14-3.26-.47-.7-.89-1.47-1.43-2.14-.39-.78-1.03-1.44-1.39-2.23-.58-.74-1.07-1.54-1.63-2.33-.35-.47-.7-1.01-1.04-1.52-.42-.55-.76-1.2-1.24-1.74-.27-.5-.72-.96-1.01-1.45,0,4.53-.03,9.06,.03,13.59,.25,.75-.05,1.67,.18,2.43,.05,.61,.1,1.25,.21,1.85-.94,0-1.8-.14-2.73-.12-.89-.15-1.86-.04-2.8-.08-.79,0-1.57-.01-2.36,.01-.54,.14-1.21,.15-1.85,.18,0-3.35-.02-6.71,.05-10.06,.05-2.9,.05-5.8,.1-8.69,.19-1.79,.03-3.63,.15-5.43,.03-4.35,.08-8.72-.07-13.06-.22-.66-.06-1.47-.18-2.17-.17-.61,.03-.84,.62-.63,1.19,.19,2.44,.28,3.67,.35,1.14,.15,2.33-.07,3.5-.07,.65-.1,1.35-.1,1.99-.24-.12,.99-.24,1.98-.22,3.03-.16,.51-.05,1.1-.16,1.63-.04,1.35,.05,2.75-.07,4.07-.1,3.16-.05,6.36-.07,9.54,.38-.56,.86-.95,1.31-1.48,.61-.74,1.21-1.49,1.86-2.19,.76-.94,1.65-1.85,2.35-2.87,.66-.58,1.07-1.31,1.68-1.93,.48-.64,1.04-1.26,1.55-1.89,.52-.72,1.15-1.37,1.64-2.12,.5-.54,.9-1.12,1.34-1.7,.36-.51,.83-.96,1.14-1.52,.34-.32,.64-.79,.91-1.18,.46-.4,.68-1.12,1.19-1.4,.9,.2,2.02,.16,2.98,.24,1.19-.03,2.58,.1,3.59-.19,.9-.25,.14,.4-.2,.73-.78,.94-1.6,1.82-2.43,2.72-.71,.68-1.31,1.45-2.01,2.14-.85,1-1.8,1.95-2.64,2.92-.96,.94-1.79,2.03-2.75,2.97-1.15,1.21-2.25,2.47-3.41,3.68-.43,.53-.97,.95-1.36,1.5,.76,1.26,1.72,2.4,2.52,3.65,1.58,2.14,3.01,4.39,4.6,6.53,.45,.64,.91,1.26,1.36,1.9,.49,.7,.99,1.4,1.53,2.08,.78,1.26,1.71,2.42,2.49,3.69,.75,.87,1.31,1.88,2.01,2.81,.64,.87,1.22,1.77,1.87,2.63h0Z"/></g><path class="cls-2" d="M95.02,291.65c4.48,0,8.99-1.21,12.77-3.63,2.29-1.33,4.33-3.11,6.01-5.16,1.11-1.19,1.91-2.61,2.77-3.99,1.42-2.76,2.48-5.74,2.76-8.85,.41-3.47,.08-7.02-.92-10.36-.74-2.54-1.9-4.94-3.37-7.14-2.02-2.98-4.63-5.62-7.75-7.43-.7-.44-1.31-.88-2.02-1.31-1.05-.72-2.74-1.63-3.98-.66-1.26,1.24-1.2,3.2-1.31,4.86,0,11.8-.06,23.59-.04,35.38-.07,.99,.23,2.19-.78,2.77-1.05,.64-2.23,1.05-3.46,1.25-1.01,.29-1.96-.15-2.94-.33-.84-.29-1.75-.65-2.36-1.24-.89-.78-.35-2.17-.5-3.26-.02-12.06,.03-24.13-.02-36.2-.18-1.3-.32-2.88-1.53-3.65-.56-.29-1.18-.25-1.76,0-1.37,.4-2.54,1.56-3.7,2.25-2.02,1.19-3.89,2.66-5.46,4.43-1.39,1.4-2.49,3.05-3.51,4.74-1.45,2.64-2.56,5.48-3.06,8.47-.51,2.75-.56,5.58-.13,8.36,.65,4.22,2.48,8.25,5.13,11.58,2.62,3.34,6.23,5.79,10.12,7.46,2.88,1.06,5.94,1.72,9.03,1.68h0Z"/><path class="cls-2" d="M95.11,236.39c.33-.01,.67,.04,.99-.05,.2-.01,.38-.16,.6-.13,.14-.11,.29-.22,.47-.23,.16-.1,.41-.06,.49-.28,.18-.06,.32-.16,.48-.25,.15-.07,.27-.24,.41-.34,.22-.1,.3-.35,.51-.46,.11-.14,.21-.28,.35-.4,.14-.2,.28-.4,.36-.64,.14-.11,.17-.3,.26-.45,.07-.16,.17-.31,.21-.48,.07-.15,.14-.31,.12-.48,.08-.21,.02-.46,.17-.65-.01-.49,.02-.99-.02-1.47-.16-.2-.08-.47-.16-.69-.02-.17-.06-.35-.16-.48-.12-.47-.43-.86-.65-1.29-.11-.14-.16-.29-.32-.39-.15-.21-.37-.35-.49-.58-.22-.01-.32-.23-.49-.34-.12-.12-.3-.17-.43-.27-.15-.06-.23-.22-.42-.22-.27-.12-.54-.29-.84-.34-.16-.08-.3-.19-.5-.14-.22,0-.43-.05-.64-.05-.37-.04-.75,0-1.12,.02-.23,.08-.5-.05-.69,.13-.24,.12-.5,.13-.73,.26-.15,.11-.35,.1-.47,.26-.2,.04-.34,.2-.53,.27-.16,.13-.33,.28-.47,.41-.2-.03-.24,.23-.38,.34-.15,.11-.19,.29-.33,.39-.27,.3-.5,.65-.66,1.02-.03,.18-.19,.28-.19,.47-.08,.17-.16,.32-.2,.51-.04,.19,.01,.41-.13,.57,.02,.44-.09,.89,0,1.33,0,.24-.02,.47,.1,.68-.03,.29,.1,.55,.22,.81-.02,.2,.16,.28,.19,.46,.07,.15,.11,.32,.21,.45,.09,.31,.36,.5,.55,.74,.12,.11,.16,.3,.33,.38,.12,.13,.21,.28,.39,.35,.1,.17,.32,.2,.44,.36,.19,.17,.48,.14,.63,.37,.13,.09,.34,.07,.46,.16,.13,.07,.31,.12,.45,.18,.21,.02,.37,.16,.58,.13,.32,.1,.68,.02,1.02,.05h0Z"/><path class="cls-2" d="M107.08,226.5c.61-1.35,2.24-2.38,3.62-1.35,2.73,1.74,4.8,4.38,7.17,6.6,3.09,3,5.9,6.35,7.83,10.22,2.01,3.97,3.19,8.33,3.33,12.78,.47,4.49-.29,9.1-1.63,13.39-2.75,8.08-8.44,15.23-15.98,19.32-10.43,5.89-23.95,5.5-34.13-.75-9.69-5.78-15.98-16.69-16.47-27.93-.26-5.16,.56-10.39,2.63-15.14,2-4.76,5.34-8.83,9.07-12.37,2.11-2.12,4.06-4.47,6.57-6.11,1.06-.82,2.77-.66,3.34,.63,1.26,1.99,2.13,4.46,2.05,6.89-.31,3.99-3.81,6.44-6.59,8.81-3.31,2.72-5.61,6.43-7.52,10.23-1.73,3.7-2.64,7.76-2.5,11.91,.02,8.9,4.41,17.72,11.61,22.99,4.72,3.31,10.44,5.22,16.24,5.03,7.93-.1,15.52-4.21,20.29-10.46,4.27-5.51,6.45-12.6,5.99-19.57-.19-4.25-1.51-8.37-3.49-12.06-1.84-3.32-4.33-6.3-7.27-8.69-2.19-2.04-4.87-3.96-5.58-7.02-.53-2.52,.33-5.09,1.41-7.35h0Z"/></svg>