<?xml version="1.0" encoding="UTF-8"?><svg id="Layer_1" xmlns="http://www.w3.org/2000/svg" viewBox="0 0 512 512"><defs><style>.cls-1{fill:#004a8f;}.cls-1,.cls-2,.cls-3{fill-rule:evenodd;}.cls-2{fill:#fff;}.cls-4{fill:#003974;}.cls-3{fill:#ed1c24;}</style></defs><path class="cls-1" d="M97.9,315.69c-38.23,0-69.4-26.82-69.4-59.69s31.17-59.69,69.4-59.69,69.4,26.82,69.4,59.69c0,32.87-31.17,59.69-69.4,59.69h0Z"/><path class="cls-2" d="M142.43,262.05l7.75,.34c-4.6,32.16-35.12,34.51-50.49,3.36l2.02-3.36c15.92,10.1,34.55,13.9,40.73-.34h0Z"/><polygon class="cls-3" points="89.92 215.25 105.4 210.21 106.07 297.74 89.22 303.45 89.92 215.25"/><path class="cls-2" d="M142.76,250.27h7.08c-2.73-14.72-10.19-23.99-24.58-25.25-12.01,.23-22.22,7.18-30.62,20.88-5.57,8.42-14.45,21.68-25.27,23.25-13.02,1.89-20.58-9.58-14.96-19.45,3.42-6.01,12.64-8.53,19.11-7.92,.04,0,.08,0,.11,.02,5.92,.59,11.36,2.1,16.05,4.96l.11-12.41c-2.94-2.5-5.34-5-8.76-6.7-4.66-2.33-9.22-3.09-13.63-2.27-19.64,4.31-23.23,20.35-19.53,41.74,7.62,24.81,31.42,26.7,45.12,10.78,9.33-11.24,32.6-49.13,49.78-27.62h0Z"/><path class="cls-3" d="M247.6,271.46c12.18,0,21.8-7.06,21.8-19.24s-9.62-19.87-21.8-19.87-21.78,7.69-21.78,19.87,9.62,19.24,21.78,19.24h0Zm0-8.97c-5.78,0-8.34-5.13-8.34-10.25,0-5.78,2.56-10.9,8.34-10.9s8.34,5.13,8.34,10.9c0,5.13-2.56,10.25-8.34,10.25h0Zm20.52-19.87h7.04v14.75c0,8.97,3.21,14.09,14.75,14.09,3.21,0,5.13-.65,7.69-.65l-.65-8.34c-1.28,0-2.56,.65-3.84,.65-3.84,0-5.13-2.56-5.13-7.06v-13.46h8.97v-8.97h-8.97v-12.81l-12.16,4.49v8.34h-7.69v8.97h0Zm73.7,28.21h12.83v-18.59h.63l10.25,18.59h15.38l-14.09-20.5,12.83-16.68h-14.12l-10.25,15.38h-.63v-28.21l-12.83,4.49v45.52h0Zm-149.97,0h12.81v-18.59l10.25,18.59h15.4l-13.46-20.5,12.81-16.68h-14.09l-10.9,15.38v-28.21l-12.81,3.84v46.17h0Zm145.5,0c-.63-3.19-.63-5.78-.63-8.97v-14.09c0-11.53-8.34-15.4-17.94-15.4-5.13,0-10.25,.65-14.75,2.56v8.99c3.84-1.93,7.69-2.56,12.18-2.56s8.34,1.28,8.34,6.41c-1.28-.65-3.84-.65-5.78-.65-7.06,0-19.87,1.28-19.87,12.81,0,8.34,7.06,11.55,14.09,11.55,5.78,0,8.97-1.93,12.18-6.41h0c0,1.93,.65,3.84,.65,5.78h11.51v-.02Zm-26.28-12.18c0-3.21,3.84-4.49,8.32-4.49h5.13c0,4.49-3.21,8.97-7.69,8.97-3.19,.02-5.76-1.91-5.76-4.47h0Z"/><path class="cls-1" d="M385.14,222.75c1.01,0,2,.25,2.96,.78s1.72,1.26,2.25,2.23c.55,.97,.8,1.97,.8,3.02s-.27,2.04-.8,3-1.26,1.7-2.23,2.23c-.97,.53-1.95,.8-3,.8s-2.04-.27-3-.8c-.95-.53-1.7-1.28-2.23-2.23-.53-.97-.8-1.95-.8-3s.27-2.06,.82-3.02,1.3-1.7,2.27-2.23c.97-.53,1.95-.78,2.96-.78h0Zm0,.99c-.84,0-1.68,.21-2.48,.65-.8,.44-1.43,1.05-1.87,1.87-.44,.8-.67,1.64-.67,2.52s.23,1.7,.67,2.5,1.07,1.41,1.87,1.87c.8,.44,1.64,.67,2.5,.67s1.7-.21,2.5-.67c.8-.44,1.43-1.07,1.87-1.87,.44-.8,.65-1.64,.65-2.5s-.23-1.7-.67-2.52c-.44-.8-1.07-1.43-1.89-1.87-.82-.42-1.64-.65-2.48-.65h0Zm-2.65,8.36v-6.47h2.23c.76,0,1.3,.06,1.66,.19,.34,.13,.61,.34,.82,.63s.29,.61,.29,.95c0,.46-.17,.88-.5,1.24s-.78,.55-1.34,.59c.23,.11,.42,.21,.55,.34,.27,.25,.59,.67,.97,1.28l.8,1.26h-1.26l-.59-1.01c-.46-.8-.82-1.3-1.09-1.51-.19-.15-.46-.23-.84-.21h-.61v2.75h-1.07v-.02Zm1.05-3.65h1.26c.61,0,1.03-.08,1.24-.27,.21-.19,.34-.42,.34-.71,0-.19-.06-.36-.17-.5s-.25-.27-.44-.34c-.19-.06-.55-.11-1.05-.11h-1.2v1.93h.02Z"/><path class="cls-4" d="M207.94,305.59h-3.44l-8.7-10.17c-.29-.36-.48-.61-.59-.74h-.06v10.9h-2.44v-22.16h2.44v10.42h.06c.15-.21,.34-.46,.59-.74l8.42-9.68h3.02l-9.62,10.63,10.31,11.53h0Zm1.16-7.71c0-2.63,.71-4.71,2.14-6.22,1.43-1.51,3.38-2.27,5.86-2.27,2.33,0,4.16,.74,5.48,2.18,1.32,1.47,1.97,3.47,1.97,6.05s-.71,4.52-2.14,6.03c-1.43,1.53-3.32,2.29-5.67,2.29s-4.12-.74-5.52-2.21c-1.43-1.45-2.12-3.4-2.12-5.86h0Zm2.44-.11c0,1.87,.48,3.36,1.47,4.47,.97,1.11,2.29,1.68,3.91,1.68s2.94-.55,3.86-1.64c.9-1.09,1.37-2.6,1.37-4.58s-.46-3.57-1.34-4.66c-.9-1.09-2.18-1.64-3.86-1.64s-2.94,.57-3.93,1.7-1.47,2.69-1.47,4.66h0Zm24.3,7.65c-.59,.34-1.34,.5-2.31,.5-2.71,0-4.07-1.53-4.07-4.6v-9.52h-2.75v-2.06h2.75v-3.89l2.37-.78v4.66h4.01v2.06h-4.01v9.07c0,1.07,.19,1.85,.55,2.31s.97,.69,1.81,.69c.65,0,1.22-.17,1.64-.53v2.06h.02Zm3.82-14.54c1.55-1.01,3.34-1.49,5.34-1.49,3.68,0,5.5,1.95,5.5,5.86v10.33h-2.39v-2.5h-.08c-1.09,1.91-2.71,2.86-4.87,2.86-1.55,0-2.79-.42-3.7-1.26-.9-.84-1.34-1.93-1.34-3.32,0-2.94,1.74-4.64,5.21-5.15l4.79-.69c0-2.75-1.09-4.12-3.3-4.12-1.91,0-3.63,.65-5.15,1.95v-2.48h0Zm4.56,7.18c-1.37,.19-2.29,.5-2.84,.99-.53,.46-.8,1.2-.8,2.18,0,.8,.27,1.43,.84,1.93,.57,.48,1.3,.74,2.23,.74,1.26,0,2.31-.46,3.15-1.37s1.26-2.04,1.26-3.38v-1.6l-3.84,.5h0Zm24.07,7.52h-3.4l-7.12-7.58h-.06v7.58h-2.39v-23.42h2.39v14.85h.06l6.76-7.25h3.17l-7.44,7.65,8.02,8.17h0Zm30.29,0v-14.96c0-1.13,.08-2.56,.23-4.28h-.06c-.27,1.05-.48,1.74-.67,2.08l-7.73,17.16h-1.09l-7.71-17.03c-.21-.44-.42-1.18-.65-2.21h-.06c.08,.78,.13,2.21,.13,4.24v15h-2.37v-22.16h3.17l6.93,15.61c.55,1.24,.88,2.1,1.03,2.63h.11c.29-.78,.65-1.66,1.07-2.69l7.1-15.54h3v22.16h-2.42Zm8.32-14.7c1.55-1.01,3.34-1.49,5.34-1.49,3.68,0,5.5,1.95,5.5,5.86v10.33h-2.39v-2.5h-.08c-1.09,1.91-2.71,2.86-4.87,2.86-1.55,0-2.79-.42-3.7-1.26-.9-.84-1.34-1.93-1.34-3.32,0-2.94,1.74-4.64,5.21-5.15l4.79-.69c0-2.75-1.09-4.12-3.3-4.12-1.91,0-3.63,.65-5.15,1.95v-2.48h0Zm4.56,7.18c-1.34,.19-2.29,.5-2.84,.99-.53,.46-.8,1.2-.8,2.18,0,.8,.29,1.43,.84,1.93,.57,.48,1.3,.74,2.23,.74,1.26,0,2.31-.46,3.17-1.37,.84-.9,1.26-2.04,1.26-3.38v-1.6l-3.86,.5h0Zm24.11,7.52h-2.37v-9.12c0-3.36-1.26-5.04-3.76-5.04-1.26,0-2.33,.48-3.19,1.45s-1.28,2.23-1.28,3.76v8.95h-2.39v-23.42h2.39v10.25h.06c1.22-2.02,2.94-3.02,5.21-3.02,3.55,0,5.34,2.14,5.34,6.45v9.75h0Zm4.52-21.51c0-.44,.15-.84,.44-1.13,.29-.32,.67-.46,1.09-.46,.44,0,.82,.17,1.13,.46,.32,.32,.46,.69,.46,1.13s-.15,.78-.46,1.09c-.32,.32-.69,.48-1.13,.48s-.82-.15-1.11-.46c-.27-.32-.42-.69-.42-1.11h0Zm.34,21.51v-15.82h2.37v15.82h-2.37Zm20.58,0h-2.39v-9.03c0-3.42-1.24-5.13-3.74-5.13-1.3,0-2.37,.48-3.23,1.47-.84,.99-1.26,2.21-1.26,3.68v9.03h-2.39v-15.82h2.39v2.65h.06c1.18-2.02,2.92-3.02,5.19-3.02,1.72,0,3.07,.57,3.97,1.68,.92,1.11,1.37,2.73,1.37,4.85v9.64h.04Zm18.21,0h-2.37v-2.71h-.06c-1.18,2.06-3,3.09-5.46,3.09-2,0-3.59-.71-4.77-2.14-1.18-1.43-1.76-3.34-1.76-5.78,0-2.6,.65-4.68,1.97-6.28,1.32-1.6,3.09-2.37,5.25-2.37s3.76,.86,4.77,2.58h.06v-9.81h2.37v23.42h0Zm-2.39-9.54c0-1.3-.44-2.39-1.32-3.3-.88-.9-1.95-1.34-3.23-1.34-1.58,0-2.84,.59-3.74,1.74-.9,1.18-1.34,2.75-1.34,4.75,0,1.83,.42,3.28,1.3,4.37,.86,1.09,2.02,1.64,3.49,1.64s2.56-.5,3.49-1.53c.92-1.03,1.39-2.33,1.39-3.93v-2.39h-.02Zm15.71-3.84c-.44-.34-1.07-.5-1.89-.5-1.11,0-2.04,.53-2.75,1.6s-1.07,2.46-1.07,4.18v8.09h-2.39v-15.82h2.39v3.28h.06c.36-1.13,.92-2,1.66-2.63,.74-.63,1.55-.95,2.46-.95,.67,0,1.2,.08,1.53,.21v2.54h0Zm3.15-1.32c1.55-1.01,3.34-1.49,5.34-1.49,3.68,0,5.5,1.95,5.5,5.86v10.33h-2.39v-2.5h-.08c-1.09,1.91-2.71,2.86-4.87,2.86-1.55,0-2.79-.42-3.7-1.26-.9-.84-1.34-1.93-1.34-3.32,0-2.94,1.74-4.64,5.21-5.15l4.79-.69c0-2.75-1.09-4.12-3.3-4.12-1.91,0-3.63,.65-5.15,1.95v-2.48h0Zm4.56,7.18c-1.34,.19-2.29,.5-2.84,.99-.53,.46-.8,1.2-.8,2.18,0,.8,.27,1.43,.84,1.93,.57,.48,1.3,.74,2.23,.74,1.26,0,2.31-.46,3.15-1.37s1.26-2.04,1.26-3.38v-1.6l-3.84,.5h0Zm18.78,7.52v-22.16h6.2c1.85,0,3.32,.46,4.45,1.39s1.68,2.14,1.68,3.68c0,1.24-.34,2.33-.99,3.26s-1.6,1.62-2.81,2.02v.06c1.47,.15,2.67,.69,3.57,1.66,.9,.97,1.34,2.21,1.34,3.74,0,1.87-.67,3.4-2.02,4.58s-3.07,1.76-5.1,1.76h-6.32v.02Zm2.42-19.91v7.29h2.69c1.47,0,2.63-.36,3.44-1.05,.82-.71,1.24-1.68,1.24-2.94,0-2.21-1.43-3.3-4.28-3.3h-3.09Zm0,9.54v8.11h3.59c1.53,0,2.71-.38,3.59-1.09,.86-.74,1.3-1.74,1.3-3.02,0-2.67-1.83-3.99-5.46-3.99h-3.02Zm15.61-4.33c1.55-1.01,3.34-1.49,5.34-1.49,3.68,0,5.5,1.95,5.5,5.86v10.33h-2.39v-2.5h-.08c-1.09,1.91-2.71,2.86-4.87,2.86-1.55,0-2.79-.42-3.7-1.26-.9-.84-1.34-1.93-1.34-3.32,0-2.94,1.74-4.64,5.21-5.15l4.79-.69c0-2.75-1.09-4.12-3.3-4.12-1.91,0-3.63,.65-5.15,1.95v-2.48h0Zm4.56,7.18c-1.34,.19-2.29,.5-2.84,.99-.53,.46-.8,1.2-.8,2.18,0,.8,.27,1.43,.84,1.93,.57,.48,1.3,.74,2.23,.74,1.26,0,2.31-.46,3.15-1.37s1.26-2.04,1.26-3.38v-1.6l-3.84,.5h0Zm24.11,7.52h-2.39v-9.03c0-3.42-1.26-5.13-3.74-5.13-1.3,0-2.39,.48-3.21,1.47-.84,.99-1.26,2.21-1.26,3.68v9.03h-2.39v-15.82h2.39v2.65h.06c1.18-2.02,2.92-3.02,5.19-3.02,1.74,0,3.07,.57,3.97,1.68,.92,1.11,1.37,2.73,1.37,4.85v9.64h.02Zm17.79,0h-3.4l-7.1-7.58h-.06v7.58h-2.39v-23.42h2.39v14.85h.06l6.74-7.25h3.15l-7.44,7.65,8.04,8.17h0Z"/></svg>