<?xml version="1.0" encoding="UTF-8"?><svg id="Layer_1" xmlns="http://www.w3.org/2000/svg" viewBox="0 0 512 512"><defs><style>.cls-1{fill:#fff;}.cls-2{fill:#fab90c;}.cls-2,.cls-3{fill-rule:evenodd;}.cls-3{fill:#9e173b;}</style></defs><path class="cls-2" d="M232.93,165.91h226.59c12.1,0,22.09,10.47,22.09,23.24v133.93c0,12.77-9.99,23.24-22.09,23.24H232.93c-12.13,0-22.04-10.47-22.04-23.24V189.15c0-12.78,9.91-23.24,22.03-23.24"/><path class="cls-1" d="M232.93,168.3c-10.83,0-19.64,9.35-19.64,20.85v133.93c0,11.49,8.81,20.85,19.64,20.85h226.59c10.87,0,19.71-9.36,19.71-20.85V189.16c0-11.5-8.84-20.85-19.7-20.85H232.93Zm226.59,180.4H232.93c-13.45,0-24.41-11.49-24.41-25.62V189.16c0-14.12,10.96-25.63,24.41-25.63h226.59c13.5,0,24.48,11.5,24.48,25.63v133.93c0,14.13-10.98,25.62-24.48,25.62"/><path class="cls-3" d="M187.96,165.69H53.32c-12.58,0-22.93,10.45-22.93,23.22v134.05c0,12.76,10.34,23.22,22.93,23.22H187.96c12.66,0,22.93-10.45,22.93-23.22V188.91c0-12.77-10.28-23.22-22.93-23.22"/><path class="cls-1" d="M53.32,168.08c-11.33,0-20.53,9.34-20.53,20.83v134.05c0,11.49,9.2,20.83,20.53,20.83H187.96c11.32,0,20.56-9.34,20.56-20.83V188.91c0-11.49-9.24-20.83-20.56-20.83H53.32Zm134.64,180.48H53.32c-13.96,0-25.32-11.49-25.32-25.6V188.91c0-14.12,11.35-25.62,25.32-25.62H187.96c13.96,0,25.33,11.5,25.33,25.62v134.05c0,14.11-11.37,25.6-25.33,25.6"/><g><path class="cls-3" d="M421.68,292.54c20.25,0,36.81-16.29,36.81-36.2,0-24.35-24.78-40.16-48.21-32.66v16.28c12.78-7.5,29.89,0,29.89,15.08,0,10.56-9.25,19.44-19.81,19.44s-19.8-8.88-19.8-19.44c0-22.13-.48-44.21-.48-66.33h-15.54l.02,67.62,.37,3.51c.57,17.69,17.01,32.22,36.74,32.68m-107.91-2.59h15.92v-35.46c-1.3-20.73,32.68-22.49,31.75,0v35.46h16.09v-36.27c1.38-45.46-66.52-42.48-63.76,0v36.27Zm-43.1-70.25c20.26,0,36.72,16.29,36.72,36.19,0,24.35-24.32,40.27-47.73,32.67v-16.3c12.4,7.5,29.33,0,29.33-14.99,0-10.64-8.71-19.52-19.7-19.52s-19.71,8.89-19.71,19.52c0,22.03-.46,43.67-.46,65.78h-15.19v-70.68c.46-17.68,17.03-32.3,36.73-32.68"/><path class="cls-2" d="M154.49,189.26h32.87v133.37h-32.87v-37.77c-28.95,10.59-56.02,11.52-80.89-12.85-10.3-10.72-16.11-25.33-13.68-50.78,.42-3.9-1.41-21.97-5.98-32.02h29.19c13.68,21.71-4.25,49.43,16.71,67.12,28.56,18.49,53.45-3.62,54.66-23.58v-43.5Zm-32.75,13.76c15.56,0,28.14,12.59,28.14,27.85s-12.57,27.87-28.14,27.87-28.27-12.47-28.27-27.87,12.71-27.85,28.27-27.85"/></g></svg>