<?xml version="1.0" encoding="UTF-8"?><svg id="Layer_1" xmlns="http://www.w3.org/2000/svg" viewBox="0 0 512 512"><defs><style>.cls-1{fill:#eb1f48;}.cls-2{fill:#002eda;fill-rule:evenodd;}</style></defs><g id="Clip-Path:_Page_1"><g id="Page_1"><path id="Path_3" class="cls-1" d="M60.86,275.6c3.64,0,5.24-4.8,2.28-7.08-.32-.32-.7-.7-1.16-1.16-14.4-11.64-18.75-8.92-33.15-3.88-.44,.24-.44,.92,0,1.16,4.35,.89,8.47,3.64,13.95,9.36l16.47,1.6c.45,0,.99,0,1.6,0Zm67.63-58.27l-55.31,55.31c-3.88,4.09-9.6,6.16-15.31,5.69l-13.24-1.13,13.72,13.24c7.32,6.87,18.96,5.48,24.44-2.73l46.63-69.7c.24-.47-.44-1.16-.92-.68h0Z"/><path id="Path_4" class="cls-2" d="M148.6,237.2l10.75,21.24c.21,.24,.68,.24,.92,0l10.49-21.24c0-.47,.24-.68,.92-.68h11.43c.24,0,.44,.44,.24,.68l-17.6,33.59v16.91c0,.45-.23,.68-.68,.68h-10.75c-.45,0-.68-.23-.68-.68v-17.15l-17.6-33.35c-.24-.47,0-.68,.44-.68h11.2c.47,0,.68,.21,.92,.68h0Zm74.97,41.12v9.39c0,.45-.24,.68-.71,.68h-35.19c-.45,0-.68-.23-.68-.68v-50.51c0-.45,.23-.68,.68-.68h37.03c.47,0,.68,.44,.47,.92-.47,1.13-2.99,8-3.2,8.68-.24,.44-.47,.68-.92,.68h-21.71c-.32,0-.47,.23-.47,.68v9.15c0,.45,.16,.68,.47,.68h19.2c.45,0,.68,.23,.68,.68v8.44c0,.32-.23,.47-.68,.47h-19.2c-.32,0-.47,.23-.47,.68v9.36c0,.45,.16,.68,.47,.68h23.52c.47,0,.71,.23,.71,.68h0Zm38.84-31.07h-17.83c-2.96,0-4.32,1.39-4.32,3.67s1.84,3.41,5.92,5.01l7.11,2.52c8.68,2.99,12.8,6.4,12.8,14.87,0,8.92-5.95,15.08-18.99,15.08h-17.6c-.3,0-.44-.23-.44-.68v-9.39c0-.45,.15-.68,.44-.68h18.99c3.64,0,5.24-1.6,5.24-4.12,0-2.73-1.84-4.09-6.84-5.92l-6.64-2.28c-6.64-2.28-12.35-5.95-12.35-13.95,0-9.83,7.32-14.84,18.07-14.84h16.44c.45,0,.68,.23,.68,.68v9.36c0,.45-.23,.68-.68,.68h0Zm27.19,40.46v-50.51c0-.45,.23-.68,.68-.68h25.83c9.83,0,13.95,7.08,13.95,13.48,0,5.04-2.52,9.6-7.08,11.64,6.4,2.07,9.36,6.4,9.36,12.59,0,8.89-6.4,14.16-16.91,14.16h-25.15c-.45,0-.68-.23-.68-.68Zm11.88-40.46v9.6c0,.45,.24,.68,.71,.68h10.28c3.64,0,5.92-1.81,5.92-5.48,0-3.41-2.04-5.48-5.92-5.48h-10.28c-.47,0-.71,.23-.71,.68Zm0,20.35v10.04c0,.45,.24,.68,.71,.68h11.88c4.12,0,6.16-2.28,6.16-5.48,0-3.41-1.84-5.92-6.16-5.92h-11.88c-.47,0-.71,.23-.71,.68h0Zm50.06-31.07h12.12c.68,0,.68,.21,.92,.68l17.36,50.51c0,.44,0,.68-.44,.68h-10.99c-.44,0-.44-.24-.68-.68l-3.44-10.28c0-.47-.23-.71-.68-.71h-15.76c-.44,0-.68,.24-.92,.71l-3.2,10.28c-.24,.44-.24,.68-.92,.68h-10.72c-.47,0-.68-.24-.47-.92l17.15-50.27c0-.45,.23-.68,.68-.68h0Zm12.12,31.52l-5.72-18.72c0-.47-.44-.47-.44,0l-5.72,18.72c-.16,.45,0,.68,.44,.68h10.96c.32,0,.47-.23,.47-.68h0Zm33.15,20.35h-10.52c-.32,0-.47-.23-.47-.68v-50.51c0-.45,.16-.68,.47-.68h8.44l.47,.21,23.31,30.39v-29.92c0-.45,.15-.68,.44-.68h10.52c.45,0,.68,.23,.68,.68v50.71c0,.24-.24,.47-.44,.47h-8.24l-.47-.24-23.52-30.16v29.71c0,.45-.23,.68-.68,.68h0Zm41.8-.68v-50.51c0-.45,.24-.68,.71-.68h10.28c.45,0,.68,.23,.68,.68v20.79c0,.24,.44,.44,.68,0l18.07-20.79c.44-.47,.68-.68,1.36-.68h11.2c.44,0,.68,.68,.24,.92l-18.07,21.92c-.16,.16-.16,.39,0,.68l19.67,27.43c.21,.44,0,.92-.47,.92h-11.88c-.44,0-.68-.24-.68-.47l-14.19-19.88c-.3-.3-.52-.3-.68,0l-5.01,5.27c-.16,.14-.24,.29-.24,.44v13.95c0,.45-.23,.68-.68,.68h-10.28c-.47,0-.71-.23-.71-.68h0Z"/></g></g></svg>